<svg
  xmlns="http://www.w3.org/2000/svg"
  className="h-6 w-6 text-black"
  viewBox="0 0 48 48"
  height="24px"
>
  <g id="Layer_2" data-name="Layer 2">
    <g id="invisible_box" data-name="invisible box">
      <rect fill="none" />
    </g>
    <g id="icons_Q2" data-name="icons Q2">
      <path
        d="M41.8,8H21.7A6.2,6.2,0,0,0,16,4a6,6,0,0,0-5.6,4H6.2A2.1,2.1,0,0,0,4,10a2.1,2.1,0,0,0,2.2,2h4.2A6,6,0,0,0,16,16a6.2,6.2,0,0,0,5.7-4H41.8a2.1,2.1,0,0,0,2.2-2A2.1,2.1,0,0,0,41.8,8ZM16,12.1a2.1,2.1,0,1,1,2.1-2.1A2.1,2.1,0,0,1,16,12.1Z" />
      <path
        d="M41.8,20H37.6A6,6,0,0,0,32,16a6.2,6.2,0,0,0-5.7,4H6.2A2.1,2.1,0,0,0,4,22a2.1,2.1,0,0,0,2.2,2H26.3A6.2,6.2,0,0,0,32,28a6,6,0,0,0,5.6-4h4.2a2.1,2.1,0,0,0,2.2-2A2.1,2.1,0,0,0,41.8,20ZM32,24.1A2.1,2.1,0,1,1,34.1,22,2.1,2.1,0,0,1,32,24.1Z" />
      <path
        d="M41.8,32H21.7A6.2,6.2,0,0,0,16,28a6,6,0,0,0-5.6,4H6.2A2.1,2.1,0,0,0,4,34a2.1,2.1,0,0,0,2.2,2h4.2A6,6,0,0,0,16,40a6.2,6.2,0,0,0,5.7-4H41.8A2.1,2.1,0,0,0,44,34,2.1,2.1,0,0,0,41.8,32ZM16,36.1A2.1,2.1,0,1,1,18.1,34,2.1,2.1,0,0,1,16,36.1Z" />
    </g>
  </g>
</svg>